# xmcd
#
# Track frame offsets:
#	150
#	13924
#	25184
#	36158
#	50645
#	62966
#	76137
#	90849
#	103909
#	114851
#	127733
#	140523
#	152420
#	164595
#	174359
#	188025
#	198143
#	209532
#	219234
#	232777
#
# Disc length: 3230 seconds
# Revision: 0
# Processed by: cddbd v1.5.2PL0 Copyright (c) Steve Scherf et al.
# Submitted via: dBpowerAMP V12.0
#
DISCID=fd0c9c14
DTITLE=Various Artist - Oldies For A Rainy Day Vol 2
DYEAR=2003
DGENRE=Country
TTITLE0=Patti Page - Changing Partners
TTITLE1=Paul And Paula - Hey Paula
TTITLE2=Johnny Tillotson - Poetry in Motion
TTITLE3=Sue Thomson - Sad Moives (Makre me Cry)
TTITLE4=The Tokens - The Lion Sleeps Tonight
TTITLE5=Bobby Helms - My Special Angel
TTITLE6=Solomon King - She Wears my Ring
TTITLE7=The Dixie Cups - Chapel of Love
TTITLE8=Patti Page - How Much is That Doggie in the Window
TTITLE9=Jphnny Tillotson - It Keeps Right on a Hurtin
TTITLE10=Johnnie Ray - Just Walking in the rain
TTITLE11=Shirelles - Will You Love me Tomorrow
TTITLE12=The Elegants - Little Star
TTITLE13=Santo and Johnny - Tear Drop
TTITLE14=The Four Aces - Love is a Many Solendored Thing
TTITLE15=Danny Williams - White On White
TTITLE16=The Bachelors - Diane
TTITLE17=The Allisons - Are you Sure
TTITLE18=David Houston - Almost Persuaded
TTITLE19=The Bachelors - I Believe
EXTD=
EXTT0=
EXTT1=
EXTT2=
EXTT3=
EXTT4=
EXTT5=
EXTT6=
EXTT7=
EXTT8=
EXTT9=
EXTT10=
EXTT11=
EXTT12=
EXTT13=
EXTT14=
EXTT15=
EXTT16=
EXTT17=
EXTT18=
EXTT19=
PLAYORDER=
